<mxfile host="Electron" modified="2024-02-11T05:42:56.142Z" agent="Mozilla/5.0 (Windows NT 10.0; Win64; x64) AppleWebKit/537.36 (KHTML, like Gecko) draw.io/23.0.2 Chrome/120.0.6099.109 Electron/28.1.0 Safari/537.36" etag="lUwxYwxGx4meUBWOiYhq" version="23.0.2" type="device" pages="4">
  <diagram name="Page-1" id="Rsqe3miHvsEEF8SDIFzU">
    <mxGraphModel dx="1434" dy="844" grid="1" gridSize="10" guides="1" tooltips="1" connect="1" arrows="1" fold="1" page="1" pageScale="1" pageWidth="850" pageHeight="1100" math="0" shadow="0">
      <root>
        <mxCell id="0" />
        <mxCell id="1" parent="0" />
        <mxCell id="GC7O8Nfk8A-_K2Koh-9y-51" style="edgeStyle=orthogonalEdgeStyle;orthogonalLoop=1;jettySize=auto;html=1;exitX=0.75;exitY=1;exitDx=0;exitDy=0;entryX=0.5;entryY=0;entryDx=0;entryDy=0;" parent="1" source="GC7O8Nfk8A-_K2Koh-9y-1" target="GC7O8Nfk8A-_K2Koh-9y-15" edge="1">
          <mxGeometry relative="1" as="geometry" />
        </mxCell>
        <mxCell id="GC7O8Nfk8A-_K2Koh-9y-1" value="&lt;font style=&quot;font-size: 7px;&quot;&gt;&amp;lt;&amp;lt;API&amp;gt;&amp;gt;&lt;/font&gt;&lt;br style=&quot;font-size: 6px;&quot;&gt;http//:localhost" style="swimlane;fontStyle=1;align=center;verticalAlign=top;childLayout=stackLayout;horizontal=1;startSize=40;horizontalStack=0;resizeParent=1;resizeParentMax=0;resizeLast=0;collapsible=1;marginBottom=0;whiteSpace=wrap;html=1;rounded=0;" parent="1" vertex="1">
          <mxGeometry x="345" y="40" width="160" height="48" as="geometry">
            <mxRectangle x="345" y="40" width="130" height="40" as="alternateBounds" />
          </mxGeometry>
        </mxCell>
        <mxCell id="GC7O8Nfk8A-_K2Koh-9y-3" value="" style="line;strokeWidth=1;fillColor=none;align=left;verticalAlign=middle;spacingTop=-1;spacingLeft=3;spacingRight=3;rotatable=0;labelPosition=right;points=[];portConstraint=eastwest;strokeColor=inherit;rounded=0;" parent="GC7O8Nfk8A-_K2Koh-9y-1" vertex="1">
          <mxGeometry y="40" width="160" height="8" as="geometry" />
        </mxCell>
        <mxCell id="euRegAWKzQq3S72FTil0-1" style="edgeStyle=orthogonalEdgeStyle;rounded=0;orthogonalLoop=1;jettySize=auto;html=1;entryX=0.5;entryY=0;entryDx=0;entryDy=0;dashed=1;endArrow=openThin;endFill=0;" parent="1" source="GC7O8Nfk8A-_K2Koh-9y-15" target="Id7wpWKOCV923ufklcgW-2" edge="1">
          <mxGeometry relative="1" as="geometry" />
        </mxCell>
        <mxCell id="GC7O8Nfk8A-_K2Koh-9y-15" value="MiscellaneousDataController" style="swimlane;fontStyle=1;align=center;verticalAlign=top;childLayout=stackLayout;horizontal=1;startSize=26;horizontalStack=0;resizeParent=1;resizeParentMax=0;resizeLast=0;collapsible=1;marginBottom=0;whiteSpace=wrap;html=1;rounded=0;shadow=0;" parent="1" vertex="1">
          <mxGeometry x="540" y="190" width="210" height="138" as="geometry">
            <mxRectangle x="530" y="140" width="190" height="30" as="alternateBounds" />
          </mxGeometry>
        </mxCell>
        <mxCell id="GC7O8Nfk8A-_K2Koh-9y-36" value="GET(MainMenuMiscellaneousData)" style="text;strokeColor=none;fillColor=none;align=left;verticalAlign=top;spacingLeft=4;spacingRight=4;overflow=hidden;rotatable=0;points=[[0,0.5],[1,0.5]];portConstraint=eastwest;whiteSpace=wrap;html=1;" parent="GC7O8Nfk8A-_K2Koh-9y-15" vertex="1">
          <mxGeometry y="26" width="210" height="26" as="geometry" />
        </mxCell>
        <mxCell id="GC7O8Nfk8A-_K2Koh-9y-49" value="GET(SettingsMiscellaneousData)" style="text;strokeColor=none;fillColor=none;align=left;verticalAlign=top;spacingLeft=4;spacingRight=4;overflow=hidden;rotatable=0;points=[[0,0.5],[1,0.5]];portConstraint=eastwest;whiteSpace=wrap;html=1;" parent="GC7O8Nfk8A-_K2Koh-9y-15" vertex="1">
          <mxGeometry y="52" width="210" height="26" as="geometry" />
        </mxCell>
        <mxCell id="GC7O8Nfk8A-_K2Koh-9y-41" value="GET(MuseumMiscellaneousData)" style="text;strokeColor=none;fillColor=none;align=left;verticalAlign=top;spacingLeft=4;spacingRight=4;overflow=hidden;rotatable=0;points=[[0,0.5],[1,0.5]];portConstraint=eastwest;whiteSpace=wrap;html=1;" parent="GC7O8Nfk8A-_K2Koh-9y-15" vertex="1">
          <mxGeometry y="78" width="210" height="26" as="geometry" />
        </mxCell>
        <mxCell id="GC7O8Nfk8A-_K2Koh-9y-45" value="GET(MineMiscellaneousData)" style="text;strokeColor=none;fillColor=none;align=left;verticalAlign=top;spacingLeft=4;spacingRight=4;overflow=hidden;rotatable=0;points=[[0,0.5],[1,0.5]];portConstraint=eastwest;whiteSpace=wrap;html=1;" parent="GC7O8Nfk8A-_K2Koh-9y-15" vertex="1">
          <mxGeometry y="104" width="210" height="26" as="geometry" />
        </mxCell>
        <mxCell id="GC7O8Nfk8A-_K2Koh-9y-17" value="" style="line;strokeWidth=1;fillColor=none;align=left;verticalAlign=middle;spacingTop=-1;spacingLeft=3;spacingRight=3;rotatable=0;labelPosition=right;points=[];portConstraint=eastwest;strokeColor=inherit;" parent="GC7O8Nfk8A-_K2Koh-9y-15" vertex="1">
          <mxGeometry y="130" width="210" height="8" as="geometry" />
        </mxCell>
        <mxCell id="Id7wpWKOCV923ufklcgW-4" value="&amp;lt;&amp;lt;interface&amp;gt;&amp;gt;&lt;br&gt;IMiscellaneousDataRepository" style="swimlane;fontStyle=1;align=center;verticalAlign=top;childLayout=stackLayout;horizontal=1;startSize=40;horizontalStack=0;resizeParent=1;resizeParentMax=0;resizeLast=0;collapsible=1;marginBottom=0;whiteSpace=wrap;html=1;" parent="1" vertex="1">
          <mxGeometry x="550" y="610" width="190" height="60" as="geometry" />
        </mxCell>
        <mxCell id="Id7wpWKOCV923ufklcgW-2" value="&amp;lt;&amp;lt;interface&amp;gt;&amp;gt;&lt;br&gt;IMiscellaneousDataService" style="swimlane;fontStyle=1;align=center;verticalAlign=top;childLayout=stackLayout;horizontal=1;startSize=40;horizontalStack=0;resizeParent=1;resizeParentMax=0;resizeLast=0;collapsible=1;marginBottom=0;whiteSpace=wrap;html=1;" parent="1" vertex="1">
          <mxGeometry x="550" y="370" width="190" height="70" as="geometry" />
        </mxCell>
        <mxCell id="euRegAWKzQq3S72FTil0-11" style="edgeStyle=orthogonalEdgeStyle;rounded=0;orthogonalLoop=1;jettySize=auto;html=1;exitX=0.5;exitY=1;exitDx=0;exitDy=0;entryX=0.5;entryY=0;entryDx=0;entryDy=0;dashed=1;endArrow=openThin;endFill=0;" parent="1" source="euRegAWKzQq3S72FTil0-9" target="Id7wpWKOCV923ufklcgW-4" edge="1">
          <mxGeometry relative="1" as="geometry" />
        </mxCell>
        <mxCell id="euRegAWKzQq3S72FTil0-13" style="edgeStyle=orthogonalEdgeStyle;rounded=0;orthogonalLoop=1;jettySize=auto;html=1;exitX=0.5;exitY=0;exitDx=0;exitDy=0;entryX=0.5;entryY=1;entryDx=0;entryDy=0;dashed=1;endArrow=block;endFill=1;" parent="1" source="euRegAWKzQq3S72FTil0-9" target="Id7wpWKOCV923ufklcgW-2" edge="1">
          <mxGeometry relative="1" as="geometry" />
        </mxCell>
        <mxCell id="euRegAWKzQq3S72FTil0-9" value="MiscellaneousDataService" style="swimlane;fontStyle=1;align=center;verticalAlign=top;childLayout=stackLayout;horizontal=1;startSize=30;horizontalStack=0;resizeParent=1;resizeParentMax=0;resizeLast=0;collapsible=1;marginBottom=0;whiteSpace=wrap;html=1;" parent="1" vertex="1">
          <mxGeometry x="550" y="490" width="190" height="60" as="geometry" />
        </mxCell>
        <mxCell id="euRegAWKzQq3S72FTil0-12" style="edgeStyle=orthogonalEdgeStyle;rounded=0;orthogonalLoop=1;jettySize=auto;html=1;exitX=0.5;exitY=0;exitDx=0;exitDy=0;entryX=0.5;entryY=1;entryDx=0;entryDy=0;endArrow=block;endFill=1;dashed=1;" parent="1" source="euRegAWKzQq3S72FTil0-10" target="Id7wpWKOCV923ufklcgW-4" edge="1">
          <mxGeometry relative="1" as="geometry" />
        </mxCell>
        <mxCell id="euRegAWKzQq3S72FTil0-10" value="MiscellaneousDataRepository" style="swimlane;fontStyle=1;align=center;verticalAlign=top;childLayout=stackLayout;horizontal=1;startSize=30;horizontalStack=0;resizeParent=1;resizeParentMax=0;resizeLast=0;collapsible=1;marginBottom=0;whiteSpace=wrap;html=1;" parent="1" vertex="1">
          <mxGeometry x="550" y="720" width="190" height="60" as="geometry" />
        </mxCell>
      </root>
    </mxGraphModel>
  </diagram>
  <diagram id="Hd7kFhpiaGxsVxs7ZCln" name="Miscellaneous Data Manages">
    <mxGraphModel dx="1434" dy="844" grid="1" gridSize="10" guides="1" tooltips="1" connect="1" arrows="1" fold="1" page="1" pageScale="1" pageWidth="850" pageHeight="1100" math="0" shadow="0">
      <root>
        <mxCell id="0" />
        <mxCell id="1" parent="0" />
        <mxCell id="IYCjF3jTDgBzd1_DNh1c-1" value="MuseumMiscellaneousDataManager" style="swimlane;fontStyle=1;align=center;verticalAlign=top;childLayout=stackLayout;horizontal=1;startSize=26;horizontalStack=0;resizeParent=1;resizeParentMax=0;resizeLast=0;collapsible=1;marginBottom=0;whiteSpace=wrap;html=1;" parent="1" vertex="1">
          <mxGeometry x="391" y="51" width="340" height="164" as="geometry">
            <mxRectangle x="250" y="60" width="220" height="30" as="alternateBounds" />
          </mxGeometry>
        </mxCell>
        <mxCell id="IYCjF3jTDgBzd1_DNh1c-2" value="+ MuseumUIElements: MuseumUIElements" style="text;strokeColor=none;fillColor=none;align=left;verticalAlign=top;spacingLeft=4;spacingRight=4;overflow=hidden;rotatable=0;points=[[0,0.5],[1,0.5]];portConstraint=eastwest;whiteSpace=wrap;html=1;" parent="IYCjF3jTDgBzd1_DNh1c-1" vertex="1">
          <mxGeometry y="26" width="340" height="26" as="geometry" />
        </mxCell>
        <mxCell id="IYCjF3jTDgBzd1_DNh1c-3" value="" style="line;strokeWidth=1;fillColor=none;align=left;verticalAlign=middle;spacingTop=-1;spacingLeft=3;spacingRight=3;rotatable=0;labelPosition=right;points=[];portConstraint=eastwest;strokeColor=inherit;" parent="IYCjF3jTDgBzd1_DNh1c-1" vertex="1">
          <mxGeometry y="52" width="340" height="8" as="geometry" />
        </mxCell>
        <mxCell id="MLcgLnYCHbWM09mIF9Af-1" value="+ AssignMuseumMiscellaneousDataToUI()" style="text;strokeColor=none;fillColor=none;align=left;verticalAlign=top;spacingLeft=4;spacingRight=4;overflow=hidden;rotatable=0;points=[[0,0.5],[1,0.5]];portConstraint=eastwest;whiteSpace=wrap;html=1;" parent="IYCjF3jTDgBzd1_DNh1c-1" vertex="1">
          <mxGeometry y="60" width="340" height="26" as="geometry" />
        </mxCell>
        <mxCell id="CCdSLZsQRuy9M_AYAXz3-3" value="- GetMuseumMiscellaneousData()" style="text;strokeColor=none;fillColor=none;align=left;verticalAlign=top;spacingLeft=4;spacingRight=4;overflow=hidden;rotatable=0;points=[[0,0.5],[1,0.5]];portConstraint=eastwest;whiteSpace=wrap;html=1;" parent="IYCjF3jTDgBzd1_DNh1c-1" vertex="1">
          <mxGeometry y="86" width="340" height="26" as="geometry" />
        </mxCell>
        <mxCell id="CCdSLZsQRuy9M_AYAXz3-5" value="- SetMuseumUIElements()" style="text;strokeColor=none;fillColor=none;align=left;verticalAlign=top;spacingLeft=4;spacingRight=4;overflow=hidden;rotatable=0;points=[[0,0.5],[1,0.5]];portConstraint=eastwest;whiteSpace=wrap;html=1;" parent="IYCjF3jTDgBzd1_DNh1c-1" vertex="1">
          <mxGeometry y="112" width="340" height="26" as="geometry" />
        </mxCell>
        <mxCell id="CCdSLZsQRuy9M_AYAXz3-4" value="- OnGetMuseumMiscellaneousDataHttpRequestCompleted()" style="text;strokeColor=none;fillColor=none;align=left;verticalAlign=top;spacingLeft=4;spacingRight=4;overflow=hidden;rotatable=0;points=[[0,0.5],[1,0.5]];portConstraint=eastwest;whiteSpace=wrap;html=1;" parent="IYCjF3jTDgBzd1_DNh1c-1" vertex="1">
          <mxGeometry y="138" width="340" height="26" as="geometry" />
        </mxCell>
        <mxCell id="hTfL99tXxgEwZ0krZcgk-2" value="MainMenuMiscellaneousDataManager" style="swimlane;fontStyle=1;align=center;verticalAlign=top;childLayout=stackLayout;horizontal=1;startSize=26;horizontalStack=0;resizeParent=1;resizeParentMax=0;resizeLast=0;collapsible=1;marginBottom=0;whiteSpace=wrap;html=1;" parent="1" vertex="1">
          <mxGeometry x="20" y="51" width="360" height="164" as="geometry" />
        </mxCell>
        <mxCell id="hTfL99tXxgEwZ0krZcgk-3" value="+ MainMenuUIElements: MainMenuUIElements" style="text;strokeColor=none;fillColor=none;align=left;verticalAlign=top;spacingLeft=4;spacingRight=4;overflow=hidden;rotatable=0;points=[[0,0.5],[1,0.5]];portConstraint=eastwest;whiteSpace=wrap;html=1;" parent="hTfL99tXxgEwZ0krZcgk-2" vertex="1">
          <mxGeometry y="26" width="360" height="26" as="geometry" />
        </mxCell>
        <mxCell id="hTfL99tXxgEwZ0krZcgk-6" value="" style="line;strokeWidth=1;fillColor=none;align=left;verticalAlign=middle;spacingTop=-1;spacingLeft=3;spacingRight=3;rotatable=0;labelPosition=right;points=[];portConstraint=eastwest;strokeColor=inherit;" parent="hTfL99tXxgEwZ0krZcgk-2" vertex="1">
          <mxGeometry y="52" width="360" height="8" as="geometry" />
        </mxCell>
        <mxCell id="hTfL99tXxgEwZ0krZcgk-7" value="+ AssignMainMenuMiscellaneousDataToUI()" style="text;strokeColor=none;fillColor=none;align=left;verticalAlign=top;spacingLeft=4;spacingRight=4;overflow=hidden;rotatable=0;points=[[0,0.5],[1,0.5]];portConstraint=eastwest;whiteSpace=wrap;html=1;" parent="hTfL99tXxgEwZ0krZcgk-2" vertex="1">
          <mxGeometry y="60" width="360" height="26" as="geometry" />
        </mxCell>
        <mxCell id="hTfL99tXxgEwZ0krZcgk-33" value="- GetMainMenuMiscellaneousData()" style="text;strokeColor=none;fillColor=none;align=left;verticalAlign=top;spacingLeft=4;spacingRight=4;overflow=hidden;rotatable=0;points=[[0,0.5],[1,0.5]];portConstraint=eastwest;whiteSpace=wrap;html=1;" parent="hTfL99tXxgEwZ0krZcgk-2" vertex="1">
          <mxGeometry y="86" width="360" height="26" as="geometry" />
        </mxCell>
        <mxCell id="CCdSLZsQRuy9M_AYAXz3-1" value="- OnGetMainMenuMiscellaneousDataHttpRequestCompleted()" style="text;strokeColor=none;fillColor=none;align=left;verticalAlign=top;spacingLeft=4;spacingRight=4;overflow=hidden;rotatable=0;points=[[0,0.5],[1,0.5]];portConstraint=eastwest;whiteSpace=wrap;html=1;" parent="hTfL99tXxgEwZ0krZcgk-2" vertex="1">
          <mxGeometry y="112" width="360" height="26" as="geometry" />
        </mxCell>
        <mxCell id="CCdSLZsQRuy9M_AYAXz3-2" value="- SetMainMenuUIElements()" style="text;strokeColor=none;fillColor=none;align=left;verticalAlign=top;spacingLeft=4;spacingRight=4;overflow=hidden;rotatable=0;points=[[0,0.5],[1,0.5]];portConstraint=eastwest;whiteSpace=wrap;html=1;" parent="hTfL99tXxgEwZ0krZcgk-2" vertex="1">
          <mxGeometry y="138" width="360" height="26" as="geometry" />
        </mxCell>
        <mxCell id="hTfL99tXxgEwZ0krZcgk-12" value="SettingsMiscellaneousDataManager" style="swimlane;fontStyle=1;align=center;verticalAlign=top;childLayout=stackLayout;horizontal=1;startSize=26;horizontalStack=0;resizeParent=1;resizeParentMax=0;resizeLast=0;collapsible=1;marginBottom=0;whiteSpace=wrap;html=1;" parent="1" vertex="1">
          <mxGeometry x="391" y="231" width="340" height="164" as="geometry" />
        </mxCell>
        <mxCell id="CCdSLZsQRuy9M_AYAXz3-10" value="+ SettingsUIElements: SettingsUIElements" style="text;strokeColor=none;fillColor=none;align=left;verticalAlign=top;spacingLeft=4;spacingRight=4;overflow=hidden;rotatable=0;points=[[0,0.5],[1,0.5]];portConstraint=eastwest;whiteSpace=wrap;html=1;" parent="hTfL99tXxgEwZ0krZcgk-12" vertex="1">
          <mxGeometry y="26" width="340" height="26" as="geometry" />
        </mxCell>
        <mxCell id="hTfL99tXxgEwZ0krZcgk-16" value="" style="line;strokeWidth=1;fillColor=none;align=left;verticalAlign=middle;spacingTop=-1;spacingLeft=3;spacingRight=3;rotatable=0;labelPosition=right;points=[];portConstraint=eastwest;strokeColor=inherit;" parent="hTfL99tXxgEwZ0krZcgk-12" vertex="1">
          <mxGeometry y="52" width="340" height="8" as="geometry" />
        </mxCell>
        <mxCell id="hTfL99tXxgEwZ0krZcgk-20" value="+ AssignSettingsMiscellaneousDataToUI()" style="text;strokeColor=none;fillColor=none;align=left;verticalAlign=top;spacingLeft=4;spacingRight=4;overflow=hidden;rotatable=0;points=[[0,0.5],[1,0.5]];portConstraint=eastwest;whiteSpace=wrap;html=1;" parent="hTfL99tXxgEwZ0krZcgk-12" vertex="1">
          <mxGeometry y="60" width="340" height="26" as="geometry" />
        </mxCell>
        <mxCell id="CCdSLZsQRuy9M_AYAXz3-12" value="- OnGetSettingsMiscellaneousDataHttpRequestCompleted()" style="text;strokeColor=none;fillColor=none;align=left;verticalAlign=top;spacingLeft=4;spacingRight=4;overflow=hidden;rotatable=0;points=[[0,0.5],[1,0.5]];portConstraint=eastwest;whiteSpace=wrap;html=1;" parent="hTfL99tXxgEwZ0krZcgk-12" vertex="1">
          <mxGeometry y="86" width="340" height="26" as="geometry" />
        </mxCell>
        <mxCell id="CCdSLZsQRuy9M_AYAXz3-14" value="- GetSettingsMiscellaneousData()" style="text;strokeColor=none;fillColor=none;align=left;verticalAlign=top;spacingLeft=4;spacingRight=4;overflow=hidden;rotatable=0;points=[[0,0.5],[1,0.5]];portConstraint=eastwest;whiteSpace=wrap;html=1;" parent="hTfL99tXxgEwZ0krZcgk-12" vertex="1">
          <mxGeometry y="112" width="340" height="26" as="geometry" />
        </mxCell>
        <mxCell id="CCdSLZsQRuy9M_AYAXz3-13" value="- SetSettingsUIElements()" style="text;strokeColor=none;fillColor=none;align=left;verticalAlign=top;spacingLeft=4;spacingRight=4;overflow=hidden;rotatable=0;points=[[0,0.5],[1,0.5]];portConstraint=eastwest;whiteSpace=wrap;html=1;" parent="hTfL99tXxgEwZ0krZcgk-12" vertex="1">
          <mxGeometry y="138" width="340" height="26" as="geometry" />
        </mxCell>
        <mxCell id="hTfL99tXxgEwZ0krZcgk-22" value="MineMiscellaneousDataManager" style="swimlane;fontStyle=1;align=center;verticalAlign=top;childLayout=stackLayout;horizontal=1;startSize=26;horizontalStack=0;resizeParent=1;resizeParentMax=0;resizeLast=0;collapsible=1;marginBottom=0;whiteSpace=wrap;html=1;" parent="1" vertex="1">
          <mxGeometry x="20" y="231" width="360" height="164" as="geometry" />
        </mxCell>
        <mxCell id="CCdSLZsQRuy9M_AYAXz3-6" value="+ MineUIElements: MineUIElements" style="text;strokeColor=none;fillColor=none;align=left;verticalAlign=top;spacingLeft=4;spacingRight=4;overflow=hidden;rotatable=0;points=[[0,0.5],[1,0.5]];portConstraint=eastwest;whiteSpace=wrap;html=1;" parent="hTfL99tXxgEwZ0krZcgk-22" vertex="1">
          <mxGeometry y="26" width="360" height="26" as="geometry" />
        </mxCell>
        <mxCell id="hTfL99tXxgEwZ0krZcgk-26" value="" style="line;strokeWidth=1;fillColor=none;align=left;verticalAlign=middle;spacingTop=-1;spacingLeft=3;spacingRight=3;rotatable=0;labelPosition=right;points=[];portConstraint=eastwest;strokeColor=inherit;" parent="hTfL99tXxgEwZ0krZcgk-22" vertex="1">
          <mxGeometry y="52" width="360" height="8" as="geometry" />
        </mxCell>
        <mxCell id="hTfL99tXxgEwZ0krZcgk-29" value="+ AssignMineMiscellaneousDataToUI()" style="text;strokeColor=none;fillColor=none;align=left;verticalAlign=top;spacingLeft=4;spacingRight=4;overflow=hidden;rotatable=0;points=[[0,0.5],[1,0.5]];portConstraint=eastwest;whiteSpace=wrap;html=1;" parent="hTfL99tXxgEwZ0krZcgk-22" vertex="1">
          <mxGeometry y="60" width="360" height="26" as="geometry" />
        </mxCell>
        <mxCell id="CCdSLZsQRuy9M_AYAXz3-9" value="- OnGetMineMiscellaneousDataHttpRequestCompleted()" style="text;strokeColor=none;fillColor=none;align=left;verticalAlign=top;spacingLeft=4;spacingRight=4;overflow=hidden;rotatable=0;points=[[0,0.5],[1,0.5]];portConstraint=eastwest;whiteSpace=wrap;html=1;" parent="hTfL99tXxgEwZ0krZcgk-22" vertex="1">
          <mxGeometry y="86" width="360" height="26" as="geometry" />
        </mxCell>
        <mxCell id="CCdSLZsQRuy9M_AYAXz3-8" value="- SetMineUIElements()" style="text;strokeColor=none;fillColor=none;align=left;verticalAlign=top;spacingLeft=4;spacingRight=4;overflow=hidden;rotatable=0;points=[[0,0.5],[1,0.5]];portConstraint=eastwest;whiteSpace=wrap;html=1;" parent="hTfL99tXxgEwZ0krZcgk-22" vertex="1">
          <mxGeometry y="112" width="360" height="26" as="geometry" />
        </mxCell>
        <mxCell id="CCdSLZsQRuy9M_AYAXz3-7" value="- GetMineMiscellaneousData()" style="text;strokeColor=none;fillColor=none;align=left;verticalAlign=top;spacingLeft=4;spacingRight=4;overflow=hidden;rotatable=0;points=[[0,0.5],[1,0.5]];portConstraint=eastwest;whiteSpace=wrap;html=1;" parent="hTfL99tXxgEwZ0krZcgk-22" vertex="1">
          <mxGeometry y="138" width="360" height="26" as="geometry" />
        </mxCell>
        <mxCell id="UgyPjp6ozuU9THJxfuyd-1" value="Miscellaneous Data Manages" style="shape=umlFrame;whiteSpace=wrap;html=1;pointerEvents=0;width=210;height=30;" parent="1" vertex="1">
          <mxGeometry x="10" y="10" width="730" height="400" as="geometry" />
        </mxCell>
      </root>
    </mxGraphModel>
  </diagram>
  <diagram id="2cD0SZWGWlWjDHu8_4sj" name="Museum">
    <mxGraphModel dx="797" dy="469" grid="1" gridSize="10" guides="1" tooltips="1" connect="1" arrows="1" fold="1" page="1" pageScale="1" pageWidth="850" pageHeight="1100" math="0" shadow="0">
      <root>
        <mxCell id="0" />
        <mxCell id="1" parent="0" />
        <mxCell id="2SdnQwP05wLMjV2bRbns-1" value="MuseumZone" style="swimlane;fontStyle=0;childLayout=stackLayout;horizontal=1;startSize=26;fillColor=none;horizontalStack=0;resizeParent=1;resizeParentMax=0;resizeLast=0;collapsible=1;marginBottom=0;whiteSpace=wrap;html=1;" parent="1" vertex="1">
          <mxGeometry x="280" y="720" width="220" height="156" as="geometry" />
        </mxCell>
        <mxCell id="2SdnQwP05wLMjV2bRbns-3" value="+ Id: string" style="text;strokeColor=none;fillColor=none;align=left;verticalAlign=top;spacingLeft=4;spacingRight=4;overflow=hidden;rotatable=0;points=[[0,0.5],[1,0.5]];portConstraint=eastwest;whiteSpace=wrap;html=1;" parent="2SdnQwP05wLMjV2bRbns-1" vertex="1">
          <mxGeometry y="26" width="220" height="26" as="geometry" />
        </mxCell>
        <mxCell id="2SdnQwP05wLMjV2bRbns-2" value="+ Name: string" style="text;strokeColor=none;fillColor=none;align=left;verticalAlign=top;spacingLeft=4;spacingRight=4;overflow=hidden;rotatable=0;points=[[0,0.5],[1,0.5]];portConstraint=eastwest;whiteSpace=wrap;html=1;" parent="2SdnQwP05wLMjV2bRbns-1" vertex="1">
          <mxGeometry y="52" width="220" height="26" as="geometry" />
        </mxCell>
        <mxCell id="kC2JNS7q-mCahAkU8Mld-1" value="+ Type: string" style="text;strokeColor=none;fillColor=none;align=left;verticalAlign=top;spacingLeft=4;spacingRight=4;overflow=hidden;rotatable=0;points=[[0,0.5],[1,0.5]];portConstraint=eastwest;whiteSpace=wrap;html=1;" parent="2SdnQwP05wLMjV2bRbns-1" vertex="1">
          <mxGeometry y="78" width="220" height="26" as="geometry" />
        </mxCell>
        <UserObject label="+ ColorCode: string" id="2SdnQwP05wLMjV2bRbns-4">
          <mxCell style="text;strokeColor=none;fillColor=none;align=left;verticalAlign=top;spacingLeft=4;spacingRight=4;overflow=hidden;rotatable=0;points=[[0,0.5],[1,0.5]];portConstraint=eastwest;whiteSpace=wrap;html=1;" parent="2SdnQwP05wLMjV2bRbns-1" vertex="1">
            <mxGeometry y="104" width="220" height="26" as="geometry" />
          </mxCell>
        </UserObject>
        <mxCell id="2SdnQwP05wLMjV2bRbns-5" value="+ OccupiedMuseumTileIds: list&amp;lt;string&amp;gt;" style="text;strokeColor=none;fillColor=none;align=left;verticalAlign=top;spacingLeft=4;spacingRight=4;overflow=hidden;rotatable=0;points=[[0,0.5],[1,0.5]];portConstraint=eastwest;whiteSpace=wrap;html=1;" parent="2SdnQwP05wLMjV2bRbns-1" vertex="1">
          <mxGeometry y="130" width="220" height="26" as="geometry" />
        </mxCell>
        <mxCell id="eCIL_Yx_G0MPZ2-y6t6e-1" value="Museum" style="swimlane;fontStyle=0;childLayout=stackLayout;horizontal=1;startSize=26;fillColor=none;horizontalStack=0;resizeParent=1;resizeParentMax=0;resizeLast=0;collapsible=1;marginBottom=0;whiteSpace=wrap;html=1;" parent="1" vertex="1">
          <mxGeometry x="40" y="40" width="280" height="234" as="geometry">
            <mxRectangle x="40" y="40" width="90" height="30" as="alternateBounds" />
          </mxGeometry>
        </mxCell>
        <mxCell id="eCIL_Yx_G0MPZ2-y6t6e-2" value="+ Id: string" style="text;strokeColor=none;fillColor=none;align=left;verticalAlign=top;spacingLeft=4;spacingRight=4;overflow=hidden;rotatable=0;points=[[0,0.5],[1,0.5]];portConstraint=eastwest;whiteSpace=wrap;html=1;" parent="eCIL_Yx_G0MPZ2-y6t6e-1" vertex="1">
          <mxGeometry y="26" width="280" height="26" as="geometry" />
        </mxCell>
        <mxCell id="eCIL_Yx_G0MPZ2-y6t6e-3" value="+ Name: string" style="text;strokeColor=none;fillColor=none;align=left;verticalAlign=top;spacingLeft=4;spacingRight=4;overflow=hidden;rotatable=0;points=[[0,0.5],[1,0.5]];portConstraint=eastwest;whiteSpace=wrap;html=1;" parent="eCIL_Yx_G0MPZ2-y6t6e-1" vertex="1">
          <mxGeometry y="52" width="280" height="26" as="geometry" />
        </mxCell>
        <UserObject label="+ Money: float" id="eCIL_Yx_G0MPZ2-y6t6e-4">
          <mxCell style="text;strokeColor=none;fillColor=none;align=left;verticalAlign=top;spacingLeft=4;spacingRight=4;overflow=hidden;rotatable=0;points=[[0,0.5],[1,0.5]];portConstraint=eastwest;whiteSpace=wrap;html=1;" parent="eCIL_Yx_G0MPZ2-y6t6e-1" vertex="1">
            <mxGeometry y="78" width="280" height="26" as="geometry" />
          </mxCell>
        </UserObject>
        <mxCell id="0fMYKqE3bpI2FGgHgGh7-32" value="+ MuseumTiles: list&amp;lt;MuseumTiles&amp;gt;" style="text;strokeColor=none;fillColor=none;align=left;verticalAlign=top;spacingLeft=4;spacingRight=4;overflow=hidden;rotatable=0;points=[[0,0.5],[1,0.5]];portConstraint=eastwest;whiteSpace=wrap;html=1;" parent="eCIL_Yx_G0MPZ2-y6t6e-1" vertex="1">
          <mxGeometry y="104" width="280" height="26" as="geometry" />
        </mxCell>
        <mxCell id="eCIL_Yx_G0MPZ2-y6t6e-5" value="+ MuseumZones: list&amp;lt;MuseumZone&amp;gt;" style="text;strokeColor=none;fillColor=none;align=left;verticalAlign=top;spacingLeft=4;spacingRight=4;overflow=hidden;rotatable=0;points=[[0,0.5],[1,0.5]];portConstraint=eastwest;whiteSpace=wrap;html=1;" parent="eCIL_Yx_G0MPZ2-y6t6e-1" vertex="1">
          <mxGeometry y="130" width="280" height="26" as="geometry" />
        </mxCell>
        <mxCell id="kC2JNS7q-mCahAkU8Mld-11" value="+ MuseumWalls: list&amp;lt;MuseumWall&amp;gt;" style="text;strokeColor=none;fillColor=none;align=left;verticalAlign=top;spacingLeft=4;spacingRight=4;overflow=hidden;rotatable=0;points=[[0,0.5],[1,0.5]];portConstraint=eastwest;whiteSpace=wrap;html=1;" parent="eCIL_Yx_G0MPZ2-y6t6e-1" vertex="1">
          <mxGeometry y="156" width="280" height="26" as="geometry" />
        </mxCell>
        <mxCell id="kC2JNS7q-mCahAkU8Mld-12" value="+ MuseumDecorations: list&amp;lt;MuseumDecooration&amp;gt;" style="text;strokeColor=none;fillColor=none;align=left;verticalAlign=top;spacingLeft=4;spacingRight=4;overflow=hidden;rotatable=0;points=[[0,0.5],[1,0.5]];portConstraint=eastwest;whiteSpace=wrap;html=1;" parent="eCIL_Yx_G0MPZ2-y6t6e-1" vertex="1">
          <mxGeometry y="182" width="280" height="26" as="geometry" />
        </mxCell>
        <mxCell id="kC2JNS7q-mCahAkU8Mld-13" value="+ MuseumExhibits: list&amp;lt;MuseumExhibit&amp;gt;" style="text;strokeColor=none;fillColor=none;align=left;verticalAlign=top;spacingLeft=4;spacingRight=4;overflow=hidden;rotatable=0;points=[[0,0.5],[1,0.5]];portConstraint=eastwest;whiteSpace=wrap;html=1;" parent="eCIL_Yx_G0MPZ2-y6t6e-1" vertex="1">
          <mxGeometry y="208" width="280" height="26" as="geometry" />
        </mxCell>
        <mxCell id="kC2JNS7q-mCahAkU8Mld-14" value="MuseumWall" style="swimlane;fontStyle=0;childLayout=stackLayout;horizontal=1;startSize=26;fillColor=none;horizontalStack=0;resizeParent=1;resizeParentMax=0;resizeLast=0;collapsible=1;marginBottom=0;whiteSpace=wrap;html=1;" parent="1" vertex="1">
          <mxGeometry x="550" y="590" width="220" height="286" as="geometry" />
        </mxCell>
        <mxCell id="kC2JNS7q-mCahAkU8Mld-15" value="+ Id: string" style="text;strokeColor=none;fillColor=none;align=left;verticalAlign=top;spacingLeft=4;spacingRight=4;overflow=hidden;rotatable=0;points=[[0,0.5],[1,0.5]];portConstraint=eastwest;whiteSpace=wrap;html=1;" parent="kC2JNS7q-mCahAkU8Mld-14" vertex="1">
          <mxGeometry y="26" width="220" height="26" as="geometry" />
        </mxCell>
        <mxCell id="kC2JNS7q-mCahAkU8Mld-16" value="+ Name: string" style="text;strokeColor=none;fillColor=none;align=left;verticalAlign=top;spacingLeft=4;spacingRight=4;overflow=hidden;rotatable=0;points=[[0,0.5],[1,0.5]];portConstraint=eastwest;whiteSpace=wrap;html=1;" parent="kC2JNS7q-mCahAkU8Mld-14" vertex="1">
          <mxGeometry y="52" width="220" height="26" as="geometry" />
        </mxCell>
        <mxCell id="0fMYKqE3bpI2FGgHgGh7-1" value="+ Price: float" style="text;strokeColor=none;fillColor=none;align=left;verticalAlign=top;spacingLeft=4;spacingRight=4;overflow=hidden;rotatable=0;points=[[0,0.5],[1,0.5]];portConstraint=eastwest;whiteSpace=wrap;html=1;" parent="kC2JNS7q-mCahAkU8Mld-14" vertex="1">
          <mxGeometry y="78" width="220" height="26" as="geometry" />
        </mxCell>
        <mxCell id="kC2JNS7q-mCahAkU8Mld-17" value="+ Type: string" style="text;strokeColor=none;fillColor=none;align=left;verticalAlign=top;spacingLeft=4;spacingRight=4;overflow=hidden;rotatable=0;points=[[0,0.5],[1,0.5]];portConstraint=eastwest;whiteSpace=wrap;html=1;" parent="kC2JNS7q-mCahAkU8Mld-14" vertex="1">
          <mxGeometry y="104" width="220" height="26" as="geometry" />
        </mxCell>
        <UserObject label="+ Category: string" id="kC2JNS7q-mCahAkU8Mld-18">
          <mxCell style="text;strokeColor=none;fillColor=none;align=left;verticalAlign=top;spacingLeft=4;spacingRight=4;overflow=hidden;rotatable=0;points=[[0,0.5],[1,0.5]];portConstraint=eastwest;whiteSpace=wrap;html=1;" parent="kC2JNS7q-mCahAkU8Mld-14" vertex="1">
            <mxGeometry y="130" width="220" height="26" as="geometry" />
          </mxCell>
        </UserObject>
        <UserObject label="+ Varient: string" id="kC2JNS7q-mCahAkU8Mld-20">
          <mxCell style="text;strokeColor=none;fillColor=none;align=left;verticalAlign=top;spacingLeft=4;spacingRight=4;overflow=hidden;rotatable=0;points=[[0,0.5],[1,0.5]];portConstraint=eastwest;whiteSpace=wrap;html=1;" parent="kC2JNS7q-mCahAkU8Mld-14" vertex="1">
            <mxGeometry y="156" width="220" height="26" as="geometry" />
          </mxCell>
        </UserObject>
        <mxCell id="kC2JNS7q-mCahAkU8Mld-19" value="+ PositionX: int" style="text;strokeColor=none;fillColor=none;align=left;verticalAlign=top;spacingLeft=4;spacingRight=4;overflow=hidden;rotatable=0;points=[[0,0.5],[1,0.5]];portConstraint=eastwest;whiteSpace=wrap;html=1;" parent="kC2JNS7q-mCahAkU8Mld-14" vertex="1">
          <mxGeometry y="182" width="220" height="26" as="geometry" />
        </mxCell>
        <mxCell id="kC2JNS7q-mCahAkU8Mld-21" value="+ PositionY: int" style="text;strokeColor=none;fillColor=none;align=left;verticalAlign=top;spacingLeft=4;spacingRight=4;overflow=hidden;rotatable=0;points=[[0,0.5],[1,0.5]];portConstraint=eastwest;whiteSpace=wrap;html=1;" parent="kC2JNS7q-mCahAkU8Mld-14" vertex="1">
          <mxGeometry y="208" width="220" height="26" as="geometry" />
        </mxCell>
        <mxCell id="0fMYKqE3bpI2FGgHgGh7-2" value="+ DecorationIds: list&amp;lt;string&amp;gt;" style="text;strokeColor=none;fillColor=none;align=left;verticalAlign=top;spacingLeft=4;spacingRight=4;overflow=hidden;rotatable=0;points=[[0,0.5],[1,0.5]];portConstraint=eastwest;whiteSpace=wrap;html=1;" parent="kC2JNS7q-mCahAkU8Mld-14" vertex="1">
          <mxGeometry y="234" width="220" height="26" as="geometry" />
        </mxCell>
        <mxCell id="0fMYKqE3bpI2FGgHgGh7-16" value="+ OccupiedMuseumTileIds: list&amp;lt;string&amp;gt;" style="text;strokeColor=none;fillColor=none;align=left;verticalAlign=top;spacingLeft=4;spacingRight=4;overflow=hidden;rotatable=0;points=[[0,0.5],[1,0.5]];portConstraint=eastwest;whiteSpace=wrap;html=1;" parent="kC2JNS7q-mCahAkU8Mld-14" vertex="1">
          <mxGeometry y="260" width="220" height="26" as="geometry" />
        </mxCell>
        <mxCell id="0fMYKqE3bpI2FGgHgGh7-6" value="MuseumDecoration" style="swimlane;fontStyle=0;childLayout=stackLayout;horizontal=1;startSize=26;fillColor=none;horizontalStack=0;resizeParent=1;resizeParentMax=0;resizeLast=0;collapsible=1;marginBottom=0;whiteSpace=wrap;html=1;" parent="1" vertex="1">
          <mxGeometry x="550" y="310" width="220" height="260" as="geometry" />
        </mxCell>
        <mxCell id="0fMYKqE3bpI2FGgHgGh7-7" value="+ Id: string" style="text;strokeColor=none;fillColor=none;align=left;verticalAlign=top;spacingLeft=4;spacingRight=4;overflow=hidden;rotatable=0;points=[[0,0.5],[1,0.5]];portConstraint=eastwest;whiteSpace=wrap;html=1;" parent="0fMYKqE3bpI2FGgHgGh7-6" vertex="1">
          <mxGeometry y="26" width="220" height="26" as="geometry" />
        </mxCell>
        <mxCell id="0fMYKqE3bpI2FGgHgGh7-8" value="+ Name: string" style="text;strokeColor=none;fillColor=none;align=left;verticalAlign=top;spacingLeft=4;spacingRight=4;overflow=hidden;rotatable=0;points=[[0,0.5],[1,0.5]];portConstraint=eastwest;whiteSpace=wrap;html=1;" parent="0fMYKqE3bpI2FGgHgGh7-6" vertex="1">
          <mxGeometry y="52" width="220" height="26" as="geometry" />
        </mxCell>
        <mxCell id="0fMYKqE3bpI2FGgHgGh7-9" value="+ Price: float" style="text;strokeColor=none;fillColor=none;align=left;verticalAlign=top;spacingLeft=4;spacingRight=4;overflow=hidden;rotatable=0;points=[[0,0.5],[1,0.5]];portConstraint=eastwest;whiteSpace=wrap;html=1;" parent="0fMYKqE3bpI2FGgHgGh7-6" vertex="1">
          <mxGeometry y="78" width="220" height="26" as="geometry" />
        </mxCell>
        <mxCell id="0fMYKqE3bpI2FGgHgGh7-10" value="+ Type: string" style="text;strokeColor=none;fillColor=none;align=left;verticalAlign=top;spacingLeft=4;spacingRight=4;overflow=hidden;rotatable=0;points=[[0,0.5],[1,0.5]];portConstraint=eastwest;whiteSpace=wrap;html=1;" parent="0fMYKqE3bpI2FGgHgGh7-6" vertex="1">
          <mxGeometry y="104" width="220" height="26" as="geometry" />
        </mxCell>
        <UserObject label="+ Category: string" id="0fMYKqE3bpI2FGgHgGh7-11">
          <mxCell style="text;strokeColor=none;fillColor=none;align=left;verticalAlign=top;spacingLeft=4;spacingRight=4;overflow=hidden;rotatable=0;points=[[0,0.5],[1,0.5]];portConstraint=eastwest;whiteSpace=wrap;html=1;" parent="0fMYKqE3bpI2FGgHgGh7-6" vertex="1">
            <mxGeometry y="130" width="220" height="26" as="geometry" />
          </mxCell>
        </UserObject>
        <UserObject label="+ Varient: string" id="0fMYKqE3bpI2FGgHgGh7-12">
          <mxCell style="text;strokeColor=none;fillColor=none;align=left;verticalAlign=top;spacingLeft=4;spacingRight=4;overflow=hidden;rotatable=0;points=[[0,0.5],[1,0.5]];portConstraint=eastwest;whiteSpace=wrap;html=1;" parent="0fMYKqE3bpI2FGgHgGh7-6" vertex="1">
            <mxGeometry y="156" width="220" height="26" as="geometry" />
          </mxCell>
        </UserObject>
        <mxCell id="0fMYKqE3bpI2FGgHgGh7-13" value="+ PositionX: int" style="text;strokeColor=none;fillColor=none;align=left;verticalAlign=top;spacingLeft=4;spacingRight=4;overflow=hidden;rotatable=0;points=[[0,0.5],[1,0.5]];portConstraint=eastwest;whiteSpace=wrap;html=1;" parent="0fMYKqE3bpI2FGgHgGh7-6" vertex="1">
          <mxGeometry y="182" width="220" height="26" as="geometry" />
        </mxCell>
        <mxCell id="0fMYKqE3bpI2FGgHgGh7-14" value="+ PositionY: int" style="text;strokeColor=none;fillColor=none;align=left;verticalAlign=top;spacingLeft=4;spacingRight=4;overflow=hidden;rotatable=0;points=[[0,0.5],[1,0.5]];portConstraint=eastwest;whiteSpace=wrap;html=1;" parent="0fMYKqE3bpI2FGgHgGh7-6" vertex="1">
          <mxGeometry y="208" width="220" height="26" as="geometry" />
        </mxCell>
        <mxCell id="0fMYKqE3bpI2FGgHgGh7-15" value="+ OccupiedMuseumTileIds: list&amp;lt;string&amp;gt;" style="text;strokeColor=none;fillColor=none;align=left;verticalAlign=top;spacingLeft=4;spacingRight=4;overflow=hidden;rotatable=0;points=[[0,0.5],[1,0.5]];portConstraint=eastwest;whiteSpace=wrap;html=1;" parent="0fMYKqE3bpI2FGgHgGh7-6" vertex="1">
          <mxGeometry y="234" width="220" height="26" as="geometry" />
        </mxCell>
        <mxCell id="0fMYKqE3bpI2FGgHgGh7-17" value="MuseumExhibit" style="swimlane;fontStyle=0;childLayout=stackLayout;horizontal=1;startSize=26;fillColor=none;horizontalStack=0;resizeParent=1;resizeParentMax=0;resizeLast=0;collapsible=1;marginBottom=0;whiteSpace=wrap;html=1;" parent="1" vertex="1">
          <mxGeometry x="280" y="310" width="220" height="390" as="geometry" />
        </mxCell>
        <mxCell id="0fMYKqE3bpI2FGgHgGh7-18" value="+ Id: string" style="text;strokeColor=none;fillColor=none;align=left;verticalAlign=top;spacingLeft=4;spacingRight=4;overflow=hidden;rotatable=0;points=[[0,0.5],[1,0.5]];portConstraint=eastwest;whiteSpace=wrap;html=1;" parent="0fMYKqE3bpI2FGgHgGh7-17" vertex="1">
          <mxGeometry y="26" width="220" height="26" as="geometry" />
        </mxCell>
        <mxCell id="0fMYKqE3bpI2FGgHgGh7-19" value="+ Name: string" style="text;strokeColor=none;fillColor=none;align=left;verticalAlign=top;spacingLeft=4;spacingRight=4;overflow=hidden;rotatable=0;points=[[0,0.5],[1,0.5]];portConstraint=eastwest;whiteSpace=wrap;html=1;" parent="0fMYKqE3bpI2FGgHgGh7-17" vertex="1">
          <mxGeometry y="52" width="220" height="26" as="geometry" />
        </mxCell>
        <mxCell id="0fMYKqE3bpI2FGgHgGh7-20" value="+ Price: float" style="text;strokeColor=none;fillColor=none;align=left;verticalAlign=top;spacingLeft=4;spacingRight=4;overflow=hidden;rotatable=0;points=[[0,0.5],[1,0.5]];portConstraint=eastwest;whiteSpace=wrap;html=1;" parent="0fMYKqE3bpI2FGgHgGh7-17" vertex="1">
          <mxGeometry y="78" width="220" height="26" as="geometry" />
        </mxCell>
        <mxCell id="0fMYKqE3bpI2FGgHgGh7-21" value="+ Type: string" style="text;strokeColor=none;fillColor=none;align=left;verticalAlign=top;spacingLeft=4;spacingRight=4;overflow=hidden;rotatable=0;points=[[0,0.5],[1,0.5]];portConstraint=eastwest;whiteSpace=wrap;html=1;" parent="0fMYKqE3bpI2FGgHgGh7-17" vertex="1">
          <mxGeometry y="104" width="220" height="26" as="geometry" />
        </mxCell>
        <UserObject label="+ Category: string" id="0fMYKqE3bpI2FGgHgGh7-22">
          <mxCell style="text;strokeColor=none;fillColor=none;align=left;verticalAlign=top;spacingLeft=4;spacingRight=4;overflow=hidden;rotatable=0;points=[[0,0.5],[1,0.5]];portConstraint=eastwest;whiteSpace=wrap;html=1;" parent="0fMYKqE3bpI2FGgHgGh7-17" vertex="1">
            <mxGeometry y="130" width="220" height="26" as="geometry" />
          </mxCell>
        </UserObject>
        <UserObject label="+ Varient: string" id="0fMYKqE3bpI2FGgHgGh7-23">
          <mxCell style="text;strokeColor=none;fillColor=none;align=left;verticalAlign=top;spacingLeft=4;spacingRight=4;overflow=hidden;rotatable=0;points=[[0,0.5],[1,0.5]];portConstraint=eastwest;whiteSpace=wrap;html=1;" parent="0fMYKqE3bpI2FGgHgGh7-17" vertex="1">
            <mxGeometry y="156" width="220" height="26" as="geometry" />
          </mxCell>
        </UserObject>
        <mxCell id="0fMYKqE3bpI2FGgHgGh7-24" value="+ PositionX: int" style="text;strokeColor=none;fillColor=none;align=left;verticalAlign=top;spacingLeft=4;spacingRight=4;overflow=hidden;rotatable=0;points=[[0,0.5],[1,0.5]];portConstraint=eastwest;whiteSpace=wrap;html=1;" parent="0fMYKqE3bpI2FGgHgGh7-17" vertex="1">
          <mxGeometry y="182" width="220" height="26" as="geometry" />
        </mxCell>
        <mxCell id="0fMYKqE3bpI2FGgHgGh7-25" value="+ PositionY: int" style="text;strokeColor=none;fillColor=none;align=left;verticalAlign=top;spacingLeft=4;spacingRight=4;overflow=hidden;rotatable=0;points=[[0,0.5],[1,0.5]];portConstraint=eastwest;whiteSpace=wrap;html=1;" parent="0fMYKqE3bpI2FGgHgGh7-17" vertex="1">
          <mxGeometry y="208" width="220" height="26" as="geometry" />
        </mxCell>
        <mxCell id="0fMYKqE3bpI2FGgHgGh7-26" value="+ OccupiedMuseumTileIds: list&amp;lt;string&amp;gt;" style="text;strokeColor=none;fillColor=none;align=left;verticalAlign=top;spacingLeft=4;spacingRight=4;overflow=hidden;rotatable=0;points=[[0,0.5],[1,0.5]];portConstraint=eastwest;whiteSpace=wrap;html=1;" parent="0fMYKqE3bpI2FGgHgGh7-17" vertex="1">
          <mxGeometry y="234" width="220" height="26" as="geometry" />
        </mxCell>
        <mxCell id="0fMYKqE3bpI2FGgHgGh7-27" value="+ ArtiifactSlot1: string" style="text;strokeColor=none;fillColor=none;align=left;verticalAlign=top;spacingLeft=4;spacingRight=4;overflow=hidden;rotatable=0;points=[[0,0.5],[1,0.5]];portConstraint=eastwest;whiteSpace=wrap;html=1;" parent="0fMYKqE3bpI2FGgHgGh7-17" vertex="1">
          <mxGeometry y="260" width="220" height="26" as="geometry" />
        </mxCell>
        <mxCell id="0fMYKqE3bpI2FGgHgGh7-28" value="+ ArtiifactSlot2: string" style="text;strokeColor=none;fillColor=none;align=left;verticalAlign=top;spacingLeft=4;spacingRight=4;overflow=hidden;rotatable=0;points=[[0,0.5],[1,0.5]];portConstraint=eastwest;whiteSpace=wrap;html=1;" parent="0fMYKqE3bpI2FGgHgGh7-17" vertex="1">
          <mxGeometry y="286" width="220" height="26" as="geometry" />
        </mxCell>
        <mxCell id="0fMYKqE3bpI2FGgHgGh7-29" value="+ ArtiifactSlot3: string" style="text;strokeColor=none;fillColor=none;align=left;verticalAlign=top;spacingLeft=4;spacingRight=4;overflow=hidden;rotatable=0;points=[[0,0.5],[1,0.5]];portConstraint=eastwest;whiteSpace=wrap;html=1;" parent="0fMYKqE3bpI2FGgHgGh7-17" vertex="1">
          <mxGeometry y="312" width="220" height="26" as="geometry" />
        </mxCell>
        <mxCell id="0fMYKqE3bpI2FGgHgGh7-30" value="+ ArtiifactSlot4: string" style="text;strokeColor=none;fillColor=none;align=left;verticalAlign=top;spacingLeft=4;spacingRight=4;overflow=hidden;rotatable=0;points=[[0,0.5],[1,0.5]];portConstraint=eastwest;whiteSpace=wrap;html=1;" parent="0fMYKqE3bpI2FGgHgGh7-17" vertex="1">
          <mxGeometry y="338" width="220" height="26" as="geometry" />
        </mxCell>
        <mxCell id="0fMYKqE3bpI2FGgHgGh7-31" value="+ ArtiifactSlot5: string" style="text;strokeColor=none;fillColor=none;align=left;verticalAlign=top;spacingLeft=4;spacingRight=4;overflow=hidden;rotatable=0;points=[[0,0.5],[1,0.5]];portConstraint=eastwest;whiteSpace=wrap;html=1;" parent="0fMYKqE3bpI2FGgHgGh7-17" vertex="1">
          <mxGeometry y="364" width="220" height="26" as="geometry" />
        </mxCell>
        <mxCell id="0fMYKqE3bpI2FGgHgGh7-33" value="MuseumTile" style="swimlane;fontStyle=0;childLayout=stackLayout;horizontal=1;startSize=26;fillColor=none;horizontalStack=0;resizeParent=1;resizeParentMax=0;resizeLast=0;collapsible=1;marginBottom=0;whiteSpace=wrap;html=1;" parent="1" vertex="1">
          <mxGeometry x="40" y="310" width="180" height="338" as="geometry" />
        </mxCell>
        <mxCell id="0fMYKqE3bpI2FGgHgGh7-34" value="+ Id: string" style="text;strokeColor=none;fillColor=none;align=left;verticalAlign=top;spacingLeft=4;spacingRight=4;overflow=hidden;rotatable=0;points=[[0,0.5],[1,0.5]];portConstraint=eastwest;whiteSpace=wrap;html=1;" parent="0fMYKqE3bpI2FGgHgGh7-33" vertex="1">
          <mxGeometry y="26" width="180" height="26" as="geometry" />
        </mxCell>
        <mxCell id="0fMYKqE3bpI2FGgHgGh7-40" value="+ PositionX: int" style="text;strokeColor=none;fillColor=none;align=left;verticalAlign=top;spacingLeft=4;spacingRight=4;overflow=hidden;rotatable=0;points=[[0,0.5],[1,0.5]];portConstraint=eastwest;whiteSpace=wrap;html=1;" parent="0fMYKqE3bpI2FGgHgGh7-33" vertex="1">
          <mxGeometry y="52" width="180" height="26" as="geometry" />
        </mxCell>
        <mxCell id="0fMYKqE3bpI2FGgHgGh7-41" value="+ PositionY: int" style="text;strokeColor=none;fillColor=none;align=left;verticalAlign=top;spacingLeft=4;spacingRight=4;overflow=hidden;rotatable=0;points=[[0,0.5],[1,0.5]];portConstraint=eastwest;whiteSpace=wrap;html=1;" parent="0fMYKqE3bpI2FGgHgGh7-33" vertex="1">
          <mxGeometry y="78" width="180" height="26" as="geometry" />
        </mxCell>
        <mxCell id="0fMYKqE3bpI2FGgHgGh7-43" value="+ TileSetNumber: int" style="text;strokeColor=none;fillColor=none;align=left;verticalAlign=top;spacingLeft=4;spacingRight=4;overflow=hidden;rotatable=0;points=[[0,0.5],[1,0.5]];portConstraint=eastwest;whiteSpace=wrap;html=1;" parent="0fMYKqE3bpI2FGgHgGh7-33" vertex="1">
          <mxGeometry y="104" width="180" height="26" as="geometry" />
        </mxCell>
        <mxCell id="0fMYKqE3bpI2FGgHgGh7-44" value="+ TileAtlasCoOrdinateX: int" style="text;strokeColor=none;fillColor=none;align=left;verticalAlign=top;spacingLeft=4;spacingRight=4;overflow=hidden;rotatable=0;points=[[0,0.5],[1,0.5]];portConstraint=eastwest;whiteSpace=wrap;html=1;" parent="0fMYKqE3bpI2FGgHgGh7-33" vertex="1">
          <mxGeometry y="130" width="180" height="26" as="geometry" />
        </mxCell>
        <mxCell id="0fMYKqE3bpI2FGgHgGh7-45" value="+ TileAtlasCoOrdinateY: int" style="text;strokeColor=none;fillColor=none;align=left;verticalAlign=top;spacingLeft=4;spacingRight=4;overflow=hidden;rotatable=0;points=[[0,0.5],[1,0.5]];portConstraint=eastwest;whiteSpace=wrap;html=1;" parent="0fMYKqE3bpI2FGgHgGh7-33" vertex="1">
          <mxGeometry y="156" width="180" height="26" as="geometry" />
        </mxCell>
        <mxCell id="0fMYKqE3bpI2FGgHgGh7-46" value="+ Layer: int" style="text;strokeColor=none;fillColor=none;align=left;verticalAlign=top;spacingLeft=4;spacingRight=4;overflow=hidden;rotatable=0;points=[[0,0.5],[1,0.5]];portConstraint=eastwest;whiteSpace=wrap;html=1;" parent="0fMYKqE3bpI2FGgHgGh7-33" vertex="1">
          <mxGeometry y="182" width="180" height="26" as="geometry" />
        </mxCell>
        <mxCell id="0fMYKqE3bpI2FGgHgGh7-51" value="+ IsInZone: bool" style="text;strokeColor=none;fillColor=none;align=left;verticalAlign=top;spacingLeft=4;spacingRight=4;overflow=hidden;rotatable=0;points=[[0,0.5],[1,0.5]];portConstraint=eastwest;whiteSpace=wrap;html=1;" parent="0fMYKqE3bpI2FGgHgGh7-33" vertex="1">
          <mxGeometry y="208" width="180" height="26" as="geometry" />
        </mxCell>
        <mxCell id="0fMYKqE3bpI2FGgHgGh7-47" value="+ HasWall: bool" style="text;strokeColor=none;fillColor=none;align=left;verticalAlign=top;spacingLeft=4;spacingRight=4;overflow=hidden;rotatable=0;points=[[0,0.5],[1,0.5]];portConstraint=eastwest;whiteSpace=wrap;html=1;" parent="0fMYKqE3bpI2FGgHgGh7-33" vertex="1">
          <mxGeometry y="234" width="180" height="26" as="geometry" />
        </mxCell>
        <mxCell id="0fMYKqE3bpI2FGgHgGh7-48" value="+ HasDecoration: bool" style="text;strokeColor=none;fillColor=none;align=left;verticalAlign=top;spacingLeft=4;spacingRight=4;overflow=hidden;rotatable=0;points=[[0,0.5],[1,0.5]];portConstraint=eastwest;whiteSpace=wrap;html=1;" parent="0fMYKqE3bpI2FGgHgGh7-33" vertex="1">
          <mxGeometry y="260" width="180" height="26" as="geometry" />
        </mxCell>
        <mxCell id="0fMYKqE3bpI2FGgHgGh7-49" value="+ HasFacility: bool" style="text;strokeColor=none;fillColor=none;align=left;verticalAlign=top;spacingLeft=4;spacingRight=4;overflow=hidden;rotatable=0;points=[[0,0.5],[1,0.5]];portConstraint=eastwest;whiteSpace=wrap;html=1;" parent="0fMYKqE3bpI2FGgHgGh7-33" vertex="1">
          <mxGeometry y="286" width="180" height="26" as="geometry" />
        </mxCell>
        <mxCell id="0fMYKqE3bpI2FGgHgGh7-50" value="+ HasExhibit: bool" style="text;strokeColor=none;fillColor=none;align=left;verticalAlign=top;spacingLeft=4;spacingRight=4;overflow=hidden;rotatable=0;points=[[0,0.5],[1,0.5]];portConstraint=eastwest;whiteSpace=wrap;html=1;" parent="0fMYKqE3bpI2FGgHgGh7-33" vertex="1">
          <mxGeometry y="312" width="180" height="26" as="geometry" />
        </mxCell>
        <mxCell id="DemIdIo2UAhp7CzqnPE7-1" value="MuseumFacility" style="swimlane;fontStyle=0;childLayout=stackLayout;horizontal=1;startSize=26;fillColor=none;horizontalStack=0;resizeParent=1;resizeParentMax=0;resizeLast=0;collapsible=1;marginBottom=0;whiteSpace=wrap;html=1;" vertex="1" parent="1">
          <mxGeometry x="40" y="660" width="220" height="260" as="geometry" />
        </mxCell>
        <mxCell id="DemIdIo2UAhp7CzqnPE7-2" value="+ Id: string" style="text;strokeColor=none;fillColor=none;align=left;verticalAlign=top;spacingLeft=4;spacingRight=4;overflow=hidden;rotatable=0;points=[[0,0.5],[1,0.5]];portConstraint=eastwest;whiteSpace=wrap;html=1;" vertex="1" parent="DemIdIo2UAhp7CzqnPE7-1">
          <mxGeometry y="26" width="220" height="26" as="geometry" />
        </mxCell>
        <mxCell id="DemIdIo2UAhp7CzqnPE7-3" value="+ Name: string" style="text;strokeColor=none;fillColor=none;align=left;verticalAlign=top;spacingLeft=4;spacingRight=4;overflow=hidden;rotatable=0;points=[[0,0.5],[1,0.5]];portConstraint=eastwest;whiteSpace=wrap;html=1;" vertex="1" parent="DemIdIo2UAhp7CzqnPE7-1">
          <mxGeometry y="52" width="220" height="26" as="geometry" />
        </mxCell>
        <mxCell id="DemIdIo2UAhp7CzqnPE7-4" value="+ Price: float" style="text;strokeColor=none;fillColor=none;align=left;verticalAlign=top;spacingLeft=4;spacingRight=4;overflow=hidden;rotatable=0;points=[[0,0.5],[1,0.5]];portConstraint=eastwest;whiteSpace=wrap;html=1;" vertex="1" parent="DemIdIo2UAhp7CzqnPE7-1">
          <mxGeometry y="78" width="220" height="26" as="geometry" />
        </mxCell>
        <mxCell id="DemIdIo2UAhp7CzqnPE7-5" value="+ Type: string" style="text;strokeColor=none;fillColor=none;align=left;verticalAlign=top;spacingLeft=4;spacingRight=4;overflow=hidden;rotatable=0;points=[[0,0.5],[1,0.5]];portConstraint=eastwest;whiteSpace=wrap;html=1;" vertex="1" parent="DemIdIo2UAhp7CzqnPE7-1">
          <mxGeometry y="104" width="220" height="26" as="geometry" />
        </mxCell>
        <UserObject label="+ Category: string" id="DemIdIo2UAhp7CzqnPE7-6">
          <mxCell style="text;strokeColor=none;fillColor=none;align=left;verticalAlign=top;spacingLeft=4;spacingRight=4;overflow=hidden;rotatable=0;points=[[0,0.5],[1,0.5]];portConstraint=eastwest;whiteSpace=wrap;html=1;" vertex="1" parent="DemIdIo2UAhp7CzqnPE7-1">
            <mxGeometry y="130" width="220" height="26" as="geometry" />
          </mxCell>
        </UserObject>
        <UserObject label="+ Varient: string" id="DemIdIo2UAhp7CzqnPE7-7">
          <mxCell style="text;strokeColor=none;fillColor=none;align=left;verticalAlign=top;spacingLeft=4;spacingRight=4;overflow=hidden;rotatable=0;points=[[0,0.5],[1,0.5]];portConstraint=eastwest;whiteSpace=wrap;html=1;" vertex="1" parent="DemIdIo2UAhp7CzqnPE7-1">
            <mxGeometry y="156" width="220" height="26" as="geometry" />
          </mxCell>
        </UserObject>
        <mxCell id="DemIdIo2UAhp7CzqnPE7-8" value="+ PositionX: int" style="text;strokeColor=none;fillColor=none;align=left;verticalAlign=top;spacingLeft=4;spacingRight=4;overflow=hidden;rotatable=0;points=[[0,0.5],[1,0.5]];portConstraint=eastwest;whiteSpace=wrap;html=1;" vertex="1" parent="DemIdIo2UAhp7CzqnPE7-1">
          <mxGeometry y="182" width="220" height="26" as="geometry" />
        </mxCell>
        <mxCell id="DemIdIo2UAhp7CzqnPE7-9" value="+ PositionY: int" style="text;strokeColor=none;fillColor=none;align=left;verticalAlign=top;spacingLeft=4;spacingRight=4;overflow=hidden;rotatable=0;points=[[0,0.5],[1,0.5]];portConstraint=eastwest;whiteSpace=wrap;html=1;" vertex="1" parent="DemIdIo2UAhp7CzqnPE7-1">
          <mxGeometry y="208" width="220" height="26" as="geometry" />
        </mxCell>
        <mxCell id="DemIdIo2UAhp7CzqnPE7-10" value="+ OccupiedMuseumTileIds: list&amp;lt;string&amp;gt;" style="text;strokeColor=none;fillColor=none;align=left;verticalAlign=top;spacingLeft=4;spacingRight=4;overflow=hidden;rotatable=0;points=[[0,0.5],[1,0.5]];portConstraint=eastwest;whiteSpace=wrap;html=1;" vertex="1" parent="DemIdIo2UAhp7CzqnPE7-1">
          <mxGeometry y="234" width="220" height="26" as="geometry" />
        </mxCell>
      </root>
    </mxGraphModel>
  </diagram>
  <diagram id="X85Ojf2y632-IY6Ez7nW" name="Page-4">
    <mxGraphModel dx="1434" dy="844" grid="1" gridSize="10" guides="1" tooltips="1" connect="1" arrows="1" fold="1" page="1" pageScale="1" pageWidth="850" pageHeight="1100" math="0" shadow="0">
      <root>
        <mxCell id="0" />
        <mxCell id="1" parent="0" />
        <mxCell id="1N9g3K6qLU4KEzNW1f1j-1" value="MuseumZoneService" style="swimlane;fontStyle=1;align=center;verticalAlign=top;childLayout=stackLayout;horizontal=1;startSize=26;horizontalStack=0;resizeParent=1;resizeParentMax=0;resizeLast=0;collapsible=1;marginBottom=0;whiteSpace=wrap;html=1;" vertex="1" parent="1">
          <mxGeometry x="370" y="40" width="300" height="216" as="geometry">
            <mxRectangle x="370" y="40" width="160" height="30" as="alternateBounds" />
          </mxGeometry>
        </mxCell>
        <mxCell id="1N9g3K6qLU4KEzNW1f1j-2" value="+ field: type" style="text;strokeColor=none;fillColor=none;align=left;verticalAlign=top;spacingLeft=4;spacingRight=4;overflow=hidden;rotatable=0;points=[[0,0.5],[1,0.5]];portConstraint=eastwest;whiteSpace=wrap;html=1;" vertex="1" parent="1N9g3K6qLU4KEzNW1f1j-1">
          <mxGeometry y="26" width="300" height="26" as="geometry" />
        </mxCell>
        <mxCell id="1N9g3K6qLU4KEzNW1f1j-3" value="" style="line;strokeWidth=1;fillColor=none;align=left;verticalAlign=middle;spacingTop=-1;spacingLeft=3;spacingRight=3;rotatable=0;labelPosition=right;points=[];portConstraint=eastwest;strokeColor=inherit;" vertex="1" parent="1N9g3K6qLU4KEzNW1f1j-1">
          <mxGeometry y="52" width="300" height="8" as="geometry" />
        </mxCell>
        <mxCell id="1N9g3K6qLU4KEzNW1f1j-4" value="+ CreateNewZone(MuseumZone): MuseumZone" style="text;strokeColor=none;fillColor=none;align=left;verticalAlign=top;spacingLeft=4;spacingRight=4;overflow=hidden;rotatable=0;points=[[0,0.5],[1,0.5]];portConstraint=eastwest;whiteSpace=wrap;html=1;" vertex="1" parent="1N9g3K6qLU4KEzNW1f1j-1">
          <mxGeometry y="60" width="300" height="26" as="geometry" />
        </mxCell>
        <mxCell id="1N9g3K6qLU4KEzNW1f1j-5" value="+ InsertTilesIntoZone(list&amp;lt;TileId&amp;gt;): MuseumZone" style="text;strokeColor=none;fillColor=none;align=left;verticalAlign=top;spacingLeft=4;spacingRight=4;overflow=hidden;rotatable=0;points=[[0,0.5],[1,0.5]];portConstraint=eastwest;whiteSpace=wrap;html=1;" vertex="1" parent="1N9g3K6qLU4KEzNW1f1j-1">
          <mxGeometry y="86" width="300" height="26" as="geometry" />
        </mxCell>
        <mxCell id="1N9g3K6qLU4KEzNW1f1j-6" value="+ ReleaseTilesFromZone(list&amp;lt;TileId&amp;gt;): MuseumZone" style="text;strokeColor=none;fillColor=none;align=left;verticalAlign=top;spacingLeft=4;spacingRight=4;overflow=hidden;rotatable=0;points=[[0,0.5],[1,0.5]];portConstraint=eastwest;whiteSpace=wrap;html=1;" vertex="1" parent="1N9g3K6qLU4KEzNW1f1j-1">
          <mxGeometry y="112" width="300" height="26" as="geometry" />
        </mxCell>
        <mxCell id="1N9g3K6qLU4KEzNW1f1j-7" value="+ EditZone(ZoneId, MuseumZone): MuseumZone" style="text;strokeColor=none;fillColor=none;align=left;verticalAlign=top;spacingLeft=4;spacingRight=4;overflow=hidden;rotatable=0;points=[[0,0.5],[1,0.5]];portConstraint=eastwest;whiteSpace=wrap;html=1;" vertex="1" parent="1N9g3K6qLU4KEzNW1f1j-1">
          <mxGeometry y="138" width="300" height="26" as="geometry" />
        </mxCell>
        <mxCell id="1N9g3K6qLU4KEzNW1f1j-8" value="+ DeleteZone(ZoneId): MuseumZone" style="text;strokeColor=none;fillColor=none;align=left;verticalAlign=top;spacingLeft=4;spacingRight=4;overflow=hidden;rotatable=0;points=[[0,0.5],[1,0.5]];portConstraint=eastwest;whiteSpace=wrap;html=1;" vertex="1" parent="1N9g3K6qLU4KEzNW1f1j-1">
          <mxGeometry y="164" width="300" height="26" as="geometry" />
        </mxCell>
        <mxCell id="1N9g3K6qLU4KEzNW1f1j-9" value="+ GetZone(ZoneId): MuseumZone" style="text;strokeColor=none;fillColor=none;align=left;verticalAlign=top;spacingLeft=4;spacingRight=4;overflow=hidden;rotatable=0;points=[[0,0.5],[1,0.5]];portConstraint=eastwest;whiteSpace=wrap;html=1;" vertex="1" parent="1N9g3K6qLU4KEzNW1f1j-1">
          <mxGeometry y="190" width="300" height="26" as="geometry" />
        </mxCell>
      </root>
    </mxGraphModel>
  </diagram>
</mxfile>
